<?xml version="1.0" encoding="UTF-8"?>
<svg xmlns="http://www.w3.org/2000/svg" xmlns:xlink="http://www.w3.org/1999/xlink" width="900px" height="900px" viewBox="0 0 859 1099" version="1.1">
<path id="JP-HK" title="Hokkaido" style="fill-rule:evenodd;fill:rgb(100%,52.156863%,52.156863%);fill-opacity:1;stroke-width:4;stroke-linecap:butt;stroke-linejoin:miter;stroke:rgb(0%,0%,0%);stroke-opacity:1;stroke-miterlimit:4;" d="M 1655.244973 620.507601 C 1655.978021 604.843889 1675.770304 606.672074 1684.2511 616.25312 L 1727.241518 664.745173 C 1732.248796 670.38772 1738.282341 674.57449 1743.503895 680.747437 C 1750.631373 689.177403 1756.585974 695.598622 1762.506742 699.751537 C 1771.923584 706.364603 1781.058484 715.708661 1790.001663 725.244567 C 1796.982531 732.704014 1802.869467 741.13398 1810.752547 744.248667 C 1814.564394 745.772154 1818.274742 748.108169 1821.996368 751.753255 C 1824.364676 754.066699 1826.608929 756.447854 1830.747828 758.987001 C 1834.751395 761.458436 1834.435621 761.88727 1839.003071 765.746772 C 1846.277158 771.919719 1857.723977 780.552817 1866.001775 781.004221 C 1875.610336 781.500765 1885.128677 789.535752 1893.248588 795.505568 C 1905.766784 804.68035 1920.089405 808.82198 1933.498535 809.99563 C 1949.817301 811.440122 1976.376177 814.001838 1985.003582 815.254484 C 2000.882519 817.567928 2018.994432 817.714635 2023.246108 813.00875 C 2029.572872 805.978136 2037.207843 804.962477 2040.997135 800.49358 C 2046.432965 794.094931 2050.741029 790.675547 2051.756017 785.258702 C 2053.661941 775.011835 2058.973716 767.134839 2068.751442 758.253469 C 2088.149008 740.626151 2085.994976 738.030579 2085.002542 760.995747 C 2084.652935 769.06459 2083.062785 777.043152 2078.258505 782.493853 C 2073.375281 788.034835 2071.31147 793.034132 2068.999551 795.505568 C 2063.225392 801.622089 2063.394557 820.366632 2064.759153 830.24109 C 2065.63881 836.741305 2068.695054 845.114845 2068.999551 848.511659 C 2069.394269 852.743569 2071.108472 857.246322 2074.254938 860.755987 C 2077.683344 864.581634 2079.453936 867.346482 2080.998975 870.506309 C 2082.442514 873.417863 2083.773278 876.60026 2086.50247 879.500529 C 2091.013532 884.30798 2092.637514 889.973097 2095.750146 894.746693 C 2104.77227 908.616074 2114.606384 913.513805 2127.99296 908.006679 C 2176.633482 888.009491 2141.638921 906.189779 2136.507589 915.25171 C 2129.684608 927.259051 2123.854061 937.359211 2109.012668 942.256942 C 2098.671059 945.665041 2088.284339 951.217308 2080.750866 960.256669 C 2072.484346 970.153697 2065.401979 976.360499 2057.000127 966.000782 C 2042.99328 948.745872 2035.290642 967.738687 2042.745172 976.744192 C 2052.974004 989.101371 2050.267367 987.273186 2039.756593 987.758445 C 2033.226832 988.051857 2025.569304 988.514546 2018.250107 985.749698 C 2004.795865 980.68269 1992.198726 974.385608 1978.992592 985.99797 C 1975.586741 989.011091 1975.552908 991.392246 1968.256266 997.260495 C 1954.779469 1008.026476 1945.565625 1018.848882 1936.239005 1030.246827 C 1932.630156 1034.670585 1930.645289 1040.290562 1926.743221 1042.739428 C 1920.371346 1046.790777 1918.104537 1051.609512 1916.255002 1057.003788 C 1913.706252 1064.350384 1908.698974 1068.085751 1906.251723 1072.249951 C 1898.458864 1085.464797 1898.14309 1100.09028 1897.488986 1118.755827 L 1896.50783 1147.498964 C 1895.763504 1168.714942 1896.575496 1168.46667 1879.997344 1158.750203 C 1871.764656 1153.931468 1863.47558 1151.606738 1848.995072 1148.751609 C 1836.950538 1146.381739 1824.612784 1145.32094 1813.256186 1140.253933 C 1810.459328 1139.001287 1807.831635 1135.739895 1803.252907 1134.746807 C 1798.538848 1133.731148 1795.302161 1130.9663 1790.745989 1127.005231 C 1788.219794 1124.804638 1785.704877 1122.03979 1782.005807 1120.505017 C 1775.667765 1117.864305 1774.73172 1115.990979 1772.002527 1113.496973 C 1766.532865 1108.508961 1761.525586 1102.550431 1753.247788 1098.239524 C 1745.984979 1094.470303 1741.191976 1091.276621 1736.004255 1086.99957 C 1731.324029 1083.128782 1726.000976 1081.436018 1717.249516 1081.255457 C 1704.291491 1080.984614 1692.08907 1079.991526 1680.247533 1083.50119 C 1676.898069 1084.494279 1670.616416 1085.419657 1664.988867 1086.751298 C 1651.985731 1089.820844 1652.008287 1092.619547 1648.252828 1096.998164 L 1621.254124 1128.506149 C 1611.059124 1140.400639 1612.310944 1138.087195 1608.250988 1127.750048 C 1604.833859 1119.083095 1602.803881 1113.982232 1598.495817 1108.238119 C 1594.052422 1102.336014 1589.078976 1096.986879 1576.256283 1097.246436 C 1572.18505 1097.325432 1567.380769 1098.408801 1561.505112 1099.255183 C 1558.009039 1099.751727 1554.964072 1099.875863 1550.250013 1103.746651 C 1547.47571 1106.037525 1546.235168 1106.804911 1543.505975 1109.005505 C 1533.660583 1116.927642 1535.64545 1126.181419 1536.006335 1134.995079 L 1536.502552 1147.498964 C 1541.566219 1160.172125 1554.388912 1165.103712 1564.49369 1167.24788 C 1570.989619 1168.624662 1584.567914 1168.782653 1592.992322 1167.744424 C 1600.063411 1166.886757 1603.694816 1169.358193 1603.24371 1176.74993 L 1602.747493 1185.247606 C 1602.488107 1189.81807 1606.401453 1190.472605 1609.502808 1191.759106 C 1620.870683 1196.442421 1630.828852 1200.809752 1639.25326 1202.502517 C 1652.019564 1205.075518 1650.485803 1209.973249 1645.252972 1216.247762 C 1640.809576 1221.551757 1636.693232 1224.85829 1633.501656 1228.999919 C 1628.223714 1235.861257 1622.61872 1236.301376 1616.246845 1234.247489 C 1612.773328 1233.130264 1609.175756 1232.701431 1603.751204 1232.001755 C 1598.789036 1231.369789 1594.965912 1228.604941 1591.492394 1224.000622 C 1585.8874 1216.52989 1582.131941 1219.306023 1579.49297 1222.251433 C 1573.639867 1228.819358 1567.358214 1235.477564 1563.253148 1242.745165 C 1560.602899 1247.428479 1558.324813 1250.41903 1559.993906 1261.749265 C 1561.132949 1269.344134 1559.576633 1275.189813 1558.245869 1280.74208 C 1557.321102 1284.624152 1554.10697 1287.174584 1551.998049 1289.995858 C 1547.509543 1295.988243 1542.840594 1295.988243 1537.246877 1291.993319 C 1534.450019 1289.995858 1530.638172 1290.33441 1526.499273 1289.002769 C 1517.747813 1286.158925 1514.037465 1279.004175 1510.236896 1273.01179 C 1506.379938 1266.883983 1505.161951 1247.913739 1513.496138 1241.503805 L 1520.995778 1235.748406 C 1525.924113 1232.250027 1526.713548 1229.552889 1526.99549 1223.244521 L 1524.999345 1207.513099 C 1524.333963 1202.231674 1521.773936 1198.947712 1513.744246 1192.007378 C 1511.093997 1189.705219 1509.695568 1185.597444 1506.244606 1183.498417 C 1501.158384 1180.395016 1495.891719 1177.41575 1491.504712 1173.003278 C 1489.057461 1170.531843 1485.832052 1167.902415 1481.501433 1166.00652 C 1473.133413 1162.350149 1473.550686 1158.253659 1472.998081 1150.997343 L 1472.998081 1124.251668 C 1472.998081 1119.229801 1472.71614 1113.993517 1476.246046 1109.750321 C 1478.467744 1107.098324 1478.264746 1102.640711 1481.501433 1098.510367 C 1486.61021 1091.919871 1488.730409 1088.556913 1491.75282 1086.99957 C 1496.297715 1084.663555 1499.455458 1083.726892 1501.99293 1081.503729 C 1505.83861 1078.152055 1508.409916 1077.046116 1510.236896 1076.244874 C 1515.548671 1073.93143 1518.886856 1070.816744 1521.243886 1068.751571 C 1528.63075 1062.240072 1534.991347 1055.841423 1540.246733 1049.250927 C 1547.701263 1039.895584 1551.535665 1024.908978 1542.254156 1018.002499 C 1535.803338 1013.195049 1531.79977 1008.094186 1530.254732 1002.000235 C 1528.799914 996.301262 1526.206054 990.128315 1535.239455 982.003047 C 1542.71654 975.2997 1561.978773 974.317897 1572.241438 979.238198 C 1578.150929 982.082042 1574.316527 990.128315 1590.499961 988.503261 C 1600.965624 987.442462 1612.559052 988.3227 1621.006015 988.006717 C 1638.678099 987.318326 1646.583735 975.209419 1648.997153 964.00332 L 1649.741478 927.247766 C 1649.865532 921.390802 1650.779022 916.967044 1646.256683 916.752628 C 1634.370035 916.177088 1643.86582 898.177361 1646.7529 895.739781 C 1651.771456 891.50787 1653.72249 889.295992 1656.496793 887.501662 C 1660.703358 884.781954 1665.180587 879.703661 1664.988867 871.499397 L 1664.255819 838.750052 C 1664.109209 832.712526 1663.691936 829.451133 1660.004143 827.995356 C 1653.542048 825.45621 1656.406572 820.603619 1660.50036 817.996762 C 1665.225697 814.983642 1664.436261 811.78996 1664.503927 808.24644 L 1665.236975 769.256437 C 1665.349751 763.749311 1666.218131 758.840294 1669.748037 754.495533 C 1672.635116 750.974583 1672.917057 743.639271 1670.988579 737.996724 C 1669.860813 734.656336 1667.842113 731.293378 1667.255675 727.242028 C 1666.635404 723.134254 1663.263385 718.078531 1656.000576 711.239764 C 1649.775311 705.394085 1644.20415 699.277563 1643.741766 694.75224 C 1643.392159 691.062014 1638.678099 688.883991 1636.501512 685.25019 C 1630.152193 674.642201 1632.90394 660.513262 1638.508934 653.245661 L 1648.252828 645.741073 C 1653.395438 641.79129 1654.951754 641.328601 1654.996865 638.010783 Z M 1655.244973 620.507601 " transform="matrix(0.346371,0,0,0.346142,20.378522,0.454283)"/>
<path id="JP-TH" title="Tohoku" style=" stroke:none;fill-rule:nonzero;fill:rgb(100%,98.431373%,56.862745%);fill-opacity:1;" d="M 46.699219 180.277344 L 79.261719 180.277344 Z M 583.054688 448.882812 C 582.566406 443.472656 589.101562 441.875 591.542969 445.070312 C 594.59375 449.070312 598.777344 448.8125 601.066406 447.148438 C 604.1875 444.890625 606.339844 444.324219 606.351562 448.882812 C 606.359375 452.738281 606.589844 454.15625 606.699219 455.457031 C 606.84375 457.28125 606.671875 459.28125 607.304688 461 C 607.816406 462.382812 609.207031 462.558594 609.554688 466.964844 C 609.722656 469.089844 609.480469 473.152344 609.296875 475.273438 C 609.003906 478.609375 609.433594 480.632812 610.164062 482.023438 C 610.960938 483.542969 611.96875 485.785156 612.847656 486.441406 C 615.203125 488.183594 617.15625 490.898438 618.558594 492.84375 C 620.050781 494.902344 621.738281 496.863281 623.234375 498.207031 C 626.542969 501.167969 629.222656 505.121094 631.203125 508.242188 C 633.941406 512.558594 635.945312 517.773438 640.902344 522.351562 C 643.820312 525.042969 646.433594 531.617188 648.171875 537.496094 C 649.546875 542.121094 651.460938 546.953125 648.695312 554.800781 C 648.105469 556.472656 647.875 558.984375 647.828125 559.816406 C 647.625 563.78125 646.34375 567.839844 645.925781 570.378906 C 645.660156 571.976562 642.332031 577.039062 640.902344 578.164062 C 635.652344 582.296875 631.808594 594.28125 635.359375 603.777344 C 636.148438 605.890625 637.347656 609.085938 638.828125 610.789062 C 640.925781 613.222656 640.570312 616.753906 637.265625 615.980469 C 636.328125 615.765625 635.394531 615.648438 634.664062 615.03125 C 633.230469 613.8125 629.292969 613.394531 626.789062 614.769531 C 624.207031 616.191406 620.496094 619.464844 617.867188 621.867188 C 616.144531 623.445312 614.824219 626.640625 614.925781 628.703125 C 615.117188 632.496094 615.464844 636.566406 615.960938 640.125 C 616.359375 642.945312 617.84375 646.390625 619.601562 648.605469 C 622.371094 652.097656 624.582031 657.820312 625.832031 662.101562 C 626.484375 664.320312 626.527344 667.496094 627.132812 669.71875 C 627.667969 671.691406 628.554688 674.402344 628.605469 676.640625 C 628.664062 679.375 628.539062 682.871094 628.433594 685.125 C 628.277344 688.457031 627.351562 692.308594 625.832031 694.121094 C 622.164062 698.503906 622.65625 700.695312 622.027344 702.601562 C 616.796875 699.039062 610.558594 698.910156 608.328125 703.265625 C 606.839844 706.164062 605.625 709.148438 599.488281 703.621094 C 596.230469 700.691406 593.136719 697.816406 590.226562 694.628906 C 581.382812 684.925781 574.851562 694.140625 569.652344 700.128906 C 567.996094 702.03125 565.46875 703.363281 563.273438 704.902344 C 559.859375 707.300781 555.671875 706.820312 550.925781 705.46875 C 550.289062 702.101562 549.671875 698.835938 546.648438 696.199219 C 544.535156 694.347656 543.429688 692.273438 543.417969 684.945312 C 543.40625 681.175781 543.746094 678.167969 549.777344 677.515625 C 552.261719 677.246094 560.222656 674.707031 559.273438 666.460938 C 558.84375 662.675781 559.761719 661.050781 563.738281 655.382812 C 560.046875 653.34375 557.011719 648.777344 557.457031 644.75 C 557.761719 641.964844 557.472656 639.871094 561.839844 636.574219 C 567.917969 632 565.199219 628.734375 557.902344 623.285156 C 555.320312 621.359375 551.519531 619.703125 549 616.753906 C 549.445312 615.535156 549.664062 614.65625 549.636719 613.730469 C 549.523438 610.449219 551.191406 607.3125 553.441406 604.296875 C 555.9375 600.960938 558.859375 592.648438 558.640625 590.195312 C 558.273438 586.113281 558.074219 582.496094 559.851562 580.070312 C 561.03125 578.449219 561.609375 575.664062 561.757812 573.667969 C 562.035156 569.917969 561.75 560.734375 561.757812 556.183594 C 561.757812 554.304688 561.820312 551.488281 560.375 550.304688 C 558.878906 549.078125 558.03125 546.550781 558.117188 544.589844 C 558.199219 542.875 557.96875 540.558594 558.296875 538.878906 C 558.976562 535.351562 556.078125 531.839844 555.953125 538.707031 C 555.925781 540.371094 555.53125 541.203125 555.089844 542.167969 C 551.761719 549.464844 544.019531 545.992188 544.265625 541.992188 C 544.488281 538.421875 547.703125 535.410156 549.636719 534.03125 C 551.621094 532.609375 554.648438 527.945312 554.828125 523.734375 C 554.925781 521.453125 555.25 518.117188 555.175781 516.207031 C 555.097656 514.152344 554.773438 511.738281 552.664062 510.148438 C 551.199219 509.042969 549.707031 507.210938 549.113281 506.164062 C 548.394531 504.898438 547.417969 503.164062 546.34375 502.183594 C 542.398438 498.597656 545.75 496.597656 548.074219 495.4375 C 549.222656 494.863281 550.984375 494.578125 552.058594 493.878906 C 557.699219 490.195312 559.113281 486.519531 560.109375 482.800781 C 560.511719 481.320312 559.980469 469.863281 560.023438 468.613281 C 560.105469 466.21875 561.328125 460.890625 563.488281 461.601562 C 564.910156 462.066406 566.929688 461.234375 567.992188 460.648438 C 572.644531 458.089844 574.429688 462.296875 575.609375 465.753906 C 576.042969 467.015625 575.347656 471.652344 575.609375 474.324219 C 575.855469 476.792969 577.800781 478.707031 579.25 480.296875 C 580.667969 481.847656 584.042969 483.429688 585.832031 478.128906 C 586.875 475.027344 590.355469 472.230469 594.484375 476.3125 C 596.546875 478.347656 597.4375 478.808594 600.03125 474.757812 C 601.1875 472.941406 600.226562 464.894531 600.289062 461.171875 C 600.386719 455.589844 596.863281 455.820312 593.792969 459.4375 C 592.476562 460.992188 587.804688 466.5625 580.113281 463.417969 C 577.0625 462.175781 580.03125 456.894531 581.328125 454.589844 C 582.058594 453.289062 583.265625 451.164062 583.054688 448.882812 Z M 583.054688 448.882812 "/>
<path id="JP-KA" title="Kanto" style=" stroke:none;fill-rule:nonzero;fill:rgb(47.45098%,100%,46.27451%);fill-opacity:1;" d="M 46.699219 325.136719 L 79.261719 325.136719 Z M 550.929688 705.46875 C 549.238281 702.433594 541.265625 703.007812 538.675781 710.597656 C 536.417969 717.226562 534.082031 720.867188 529.152344 720.632812 C 525.863281 722.675781 523.582031 725.90625 520.558594 728.300781 C 515.191406 732.566406 514.5625 741.703125 524.773438 742.414062 C 529.183594 742.71875 528.953125 748.011719 528.507812 751.835938 C 527.914062 757 529.378906 759.683594 531.847656 761.660156 C 534.367188 763.679688 536.636719 765.964844 539.660156 768.601562 C 542.566406 771.140625 546.289062 772.664062 551.097656 773.84375 C 552.925781 774.9375 554.757812 775.363281 556.023438 776.617188 C 560.5 781.066406 556.238281 786.640625 552.308594 787.183594 C 548.953125 787.640625 546.5 791.265625 546.839844 792.796875 C 548.351562 792.949219 549.617188 792.9375 550.453125 793.742188 C 553.023438 796.226562 552.496094 798.28125 552.507812 799.660156 C 552.53125 803.257812 555.402344 806.164062 559.402344 806.253906 C 559.175781 804.429688 559.617188 802.347656 559.9375 801.253906 C 560.828125 798.238281 563.101562 796.398438 565.132812 795.28125 C 567.535156 793.960938 571.3125 794.289062 574.054688 794.160156 C 577.859375 793.976562 578.808594 795.984375 579.25 798.3125 C 580.453125 804.71875 591.679688 798.933594 584.097656 789.65625 C 583.066406 788.390625 581.703125 785.695312 581.5 783.078125 C 581.203125 779.3125 581.3125 775.929688 585.140625 774.164062 C 586.507812 773.539062 588.441406 772.800781 589.8125 772.179688 C 595.554688 769.554688 603.953125 771.785156 598.039062 778.410156 C 597.09375 779.460938 594.679688 781.929688 593.621094 782.992188 C 591.839844 784.796875 589.90625 783.394531 589.902344 791.128906 C 589.894531 794.292969 589.804688 798.609375 589.984375 801.773438 C 590.054688 803.03125 590.648438 805.101562 591.199219 806.359375 C 591.800781 807.742188 591.898438 809.277344 591.714844 810.773438 C 591.328125 814.027344 593.277344 815.210938 595.355469 814.925781 C 598.082031 814.550781 600.492188 812.429688 601.066406 809.734375 C 601.300781 808.660156 601.492188 806.089844 605.136719 803.9375 C 606.921875 802.886719 609.3125 800.320312 611.632812 799.347656 C 614.523438 798.140625 616.722656 796.53125 616.136719 789.570312 C 615.84375 786.109375 616.648438 781.632812 616.566406 778.839844 C 616.460938 774.808594 615.949219 769.835938 621.679688 767.503906 C 623.769531 766.652344 625.960938 765.011719 627.996094 764.046875 C 633.804688 761.28125 630.984375 758.414062 628.605469 756.082031 C 626.714844 754.222656 623.929688 751.335938 622.199219 749.332031 C 618.441406 744.972656 616.027344 738.265625 616.050781 732.542969 C 616.0625 729.167969 616.078125 724.496094 615.964844 721.121094 C 615.863281 718.265625 616.746094 714.460938 618.042969 711.777344 C 619.34375 709.078125 620.949219 705.847656 622.027344 702.601562 C 616.796875 699.039062 610.558594 698.910156 608.328125 703.265625 C 606.84375 706.164062 605.625 709.148438 599.488281 703.621094 C 596.230469 700.691406 593.136719 697.816406 590.226562 694.628906 C 581.382812 684.925781 574.851562 694.140625 569.65625 700.128906 C 567.996094 702.03125 565.46875 703.363281 563.273438 704.902344 C 559.859375 707.300781 555.671875 706.820312 550.929688 705.46875 Z M 550.929688 705.46875 "/>
<path id="JP-CHU" title="Chubu" style=" stroke:none;fill-rule:nonzero;fill:rgb(54.509804%,100%,90.980392%);fill-opacity:1;" d="M 46.699219 488.515625 L 79.261719 488.515625 Z M 559.402344 806.253906 C 555.402344 806.164062 552.53125 803.257812 552.507812 799.660156 C 552.496094 798.28125 553.023438 796.226562 550.453125 793.742188 C 549.617188 792.9375 548.351562 792.949219 546.839844 792.796875 C 546.5 791.265625 548.953125 787.640625 552.308594 787.183594 C 556.238281 786.640625 560.5 781.066406 556.023438 776.617188 C 554.757812 775.363281 552.925781 774.9375 551.097656 773.84375 C 546.289062 772.664062 542.566406 771.140625 539.660156 768.601562 C 536.636719 765.964844 534.367188 763.679688 531.847656 761.660156 C 529.378906 759.683594 527.914062 757 528.507812 751.835938 C 528.953125 748.011719 529.183594 742.71875 524.773438 742.414062 C 514.5625 741.703125 515.191406 732.566406 520.558594 728.300781 C 523.582031 725.90625 525.863281 722.675781 529.152344 720.632812 C 534.082031 720.867188 536.417969 717.226562 538.675781 710.597656 C 541.265625 703.007812 549.238281 702.433594 550.925781 705.46875 C 550.289062 702.101562 549.671875 698.835938 546.648438 696.199219 C 544.535156 694.347656 543.429688 692.273438 543.417969 684.945312 C 543.40625 681.175781 543.746094 678.167969 549.777344 677.515625 C 552.261719 677.246094 560.222656 674.707031 559.273438 666.460938 C 558.84375 662.675781 559.761719 661.050781 563.738281 655.382812 C 560.046875 653.34375 557.011719 648.777344 557.457031 644.75 C 557.761719 641.964844 557.472656 639.871094 561.839844 636.574219 C 567.917969 632 565.199219 628.734375 557.902344 623.285156 C 555.320312 621.359375 551.519531 619.703125 549 616.753906 C 548.460938 618.226562 547.765625 619.710938 546.949219 620.738281 C 546.039062 621.894531 546.425781 628.589844 546.34375 631.816406 C 546.140625 639.726562 540.015625 649.40625 533.527344 652.582031 C 530.78125 653.929688 521.824219 662.253906 521.058594 668.417969 C 520.859375 670.035156 519.765625 673.078125 517.765625 675.949219 C 516.359375 677.976562 515.421875 681.914062 514.824219 683.738281 C 514.105469 685.929688 513.226562 688.519531 511.792969 690.226562 C 510.257812 692.054688 508.320312 694.875 506.335938 696.199219 C 504.84375 697.199219 502.847656 698.664062 501.488281 700.003906 C 500.246094 701.234375 498.414062 702.765625 496.8125 703.472656 C 495.21875 704.167969 493.457031 705.414062 492.480469 706.496094 C 491.179688 707.941406 488.585938 708.703125 486.9375 710.214844 C 484.851562 712.136719 482.917969 712.449219 478.714844 713.855469 C 476.65625 714.542969 473.113281 713.960938 471.441406 715.238281 C 470.503906 715.953125 469.019531 717.835938 467.890625 718.179688 C 467.242188 718.378906 465.886719 719.820312 465.898438 721.554688 C 465.914062 724.492188 463.203125 728.03125 458.191406 727.351562 C 452.6875 726.605469 448.835938 717.550781 450.398438 715.929688 C 452.632812 713.613281 451.625 711.851562 448.320312 711.085938 C 444.691406 710.238281 447 706.363281 449.53125 705.027344 C 451.933594 703.753906 456.273438 701.234375 458.019531 698.277344 C 458.496094 697.472656 459.9375 695.015625 460.703125 694.464844 C 461.589844 693.832031 463.058594 688.675781 461.65625 686.679688 C 459.511719 683.628906 453.109375 685.773438 451.613281 688.585938 C 450.757812 690.183594 449.539062 692.617188 443.125 693.257812 C 441.347656 693.4375 437.664062 695.992188 436.542969 697.585938 C 435.714844 698.757812 434.449219 700.207031 433.421875 701.214844 C 429.730469 704.871094 432.1875 709.492188 434.121094 713.164062 C 435.695312 716.15625 437.691406 731.738281 433.859375 737.390625 C 432.902344 738.796875 431.867188 741.167969 430.914062 742.582031 C 427.851562 747.140625 423.320312 752.84375 420.09375 757.292969 C 418.40625 759.613281 415.742188 762.476562 414.546875 765.082031 C 413.1875 768.054688 410.96875 770.441406 409.09375 772.4375 C 405.914062 775.8125 407.882812 779.101562 411.253906 782.90625 C 412.839844 784.695312 417.839844 791.746094 408.921875 796.578125 C 407.585938 797.304688 404.421875 796.769531 403.203125 800.5625 C 402.757812 801.957031 401.230469 803.394531 400.003906 804.195312 C 398.789062 804.984375 397.097656 805.15625 395.5 805.929688 C 394.375 806.46875 392.609375 807.207031 390.960938 806.148438 C 389.921875 810.351562 395.851562 814.503906 402.914062 812.980469 C 405.617188 810.933594 407.195312 809.925781 408.464844 808.386719 C 409.523438 807.105469 410.671875 806.738281 411.664062 806.148438 C 412.898438 805.414062 413.886719 805.183594 414.878906 803.953125 C 417.570312 800.625 418.960938 800.117188 420.371094 798.65625 C 422.363281 796.597656 422.960938 795.621094 424.171875 793.832031 C 425.742188 796.285156 428.210938 799.6875 429.546875 804.066406 C 430.5625 807.386719 432.199219 807.167969 432.65625 809.449219 C 434.496094 818.683594 436.128906 822.140625 445.460938 821.253906 C 446.816406 825.558594 449.953125 825.734375 451.003906 829.027344 C 455.5625 827.582031 456.378906 826.609375 455.941406 832.753906 C 455.800781 834.699219 456.132812 837.488281 457.152344 839.15625 C 461.039062 845.503906 460.734375 842.402344 467.371094 840.195312 C 468.480469 839.828125 470.011719 839.433594 471.183594 839.328125 C 479.273438 838.597656 475.15625 843.335938 473.261719 844.523438 C 460.816406 852.292969 469.425781 849.734375 474.988281 847.632812 C 478.449219 846.328125 488.640625 844.183594 489.625 844 C 497.023438 842.621094 509.582031 844.125 517.074219 843.136719 C 520.011719 842.75 522.167969 844.457031 522.964844 837.855469 C 523.085938 836.820312 522.738281 834.277344 526.167969 831.019531 C 527.859375 829.417969 528.9375 826.132812 529.023438 822.191406 C 529.074219 819.875 530.96875 817.171875 533.007812 816.484375 C 534.472656 815.988281 536.574219 814.25 539.503906 812.9375 C 542.457031 811.609375 546.667969 811.21875 546.34375 817.867188 C 546.242188 819.886719 546.371094 825.1875 546.167969 828.601562 C 545.859375 833.792969 551.1875 841.199219 553.441406 835.351562 C 553.996094 833.914062 552.539062 832.625 556.390625 830.328125 C 557.714844 829.539062 558.679688 827.539062 560.023438 826.78125 C 561.640625 825.871094 563.265625 823.9375 562.972656 820.636719 C 562.78125 818.570312 562.859375 815.792969 562.972656 813.714844 C 563.074219 811.683594 561.789062 810.136719 560.457031 808.78125 C 559.832031 808.148438 559.519531 807.238281 559.402344 806.253906 Z M 559.402344 806.253906 "/>
<path id="JP-SH"  title="Shikoku" style=" stroke:none;fill-rule:nonzero;fill:rgb(44.705882%,44.705882%,100%);fill-opacity:1;" d="M 239.113281 114.507812 L 271.667969 114.507812 Z M 390.960938 806.148438 C 389.921875 810.351562 395.851562 814.503906 402.914062 812.980469 C 405.617188 810.933594 407.195312 809.925781 408.464844 808.386719 C 409.523438 807.105469 410.671875 806.738281 411.664062 806.148438 C 412.898438 805.414062 413.886719 805.183594 414.878906 803.953125 C 417.570312 800.625 418.960938 800.117188 420.371094 798.65625 C 422.363281 796.597656 422.960938 795.621094 424.179688 793.832031 C 425.742188 796.285156 428.210938 799.6875 429.546875 804.066406 C 430.5625 807.386719 432.199219 807.167969 432.65625 809.453125 C 434.496094 818.683594 436.128906 822.140625 445.460938 821.253906 C 446.816406 825.558594 449.953125 825.734375 451.003906 829.027344 C 449.796875 829.417969 445.945312 831.761719 445.203125 833.097656 C 444.199219 834.90625 442.414062 838.140625 441.566406 839.761719 C 440.441406 841.902344 439.367188 844.285156 441.910156 845.820312 C 443.3125 846.664062 446.550781 848.464844 447.886719 849.800781 C 449.0625 850.972656 451.691406 852.078125 453.34375 852.914062 C 457.070312 854.804688 471.101562 862.832031 458.019531 868.578125 C 457.058594 868.996094 454.757812 868.144531 452.910156 868.921875 C 449.796875 870.230469 444.523438 870.925781 441.390625 872.902344 C 438.222656 874.90625 434.707031 874.980469 435.15625 880.695312 C 435.585938 886.175781 433.730469 887.085938 429.097656 890.902344 C 422.894531 896.015625 423.089844 894.148438 423.121094 902.847656 C 423.140625 907.585938 424.085938 911.789062 420.609375 912.625 C 417.964844 913.261719 416.1875 915.640625 415.675781 916.085938 C 414.398438 917.191406 413.339844 919.320312 410.476562 918.941406 C 409.878906 918.863281 408.738281 917.886719 407.621094 917.90625 C 406.433594 917.921875 405.300781 917.433594 403.808594 916.171875 C 402.15625 914.777344 399.722656 913.339844 397.574219 913.058594 C 396.808594 912.957031 395.894531 912.746094 392.640625 910.460938 C 391.964844 909.988281 391.070312 908.316406 390.386719 907.605469 C 389.242188 906.414062 387.84375 905.351562 387.53125 903.882812 C 387.089844 901.800781 385.339844 899.707031 382.855469 899.207031 C 380.648438 898.769531 378.398438 895.0625 379.21875 891.769531 C 379.871094 889.167969 379.628906 885.445312 379.21875 883.636719 C 377.65625 876.730469 378.367188 875.308594 381.46875 873.679688 C 382.9375 872.914062 385.347656 871.148438 386.230469 869.878906 C 387 868.777344 387.835938 867.347656 388.917969 866.414062 C 390.75 864.832031 391.960938 862.59375 391.773438 860.183594 C 391.566406 857.503906 392.273438 853.640625 387.273438 854.382812 C 384.421875 854.8125 380.007812 857.09375 374.195312 855.078125 C 371.839844 854.261719 368.546875 853.605469 365.714844 853.863281 C 362.078125 854.203125 358.828125 852.828125 355.234375 852.222656 C 349.929688 851.332031 343.28125 851.296875 341.554688 853.261719 C 336.347656 847.035156 333.101562 833.8125 340.355469 827.582031 C 348.421875 820.660156 349.945312 814.734375 339.5625 803.074219 C 342.242188 801.492188 341.621094 800.460938 346.921875 800.296875 C 352.167969 800.136719 354.492188 801.898438 357.917969 802.117188 C 363.683594 802.492188 363.613281 801.199219 366.40625 799.347656 C 367.539062 798.597656 368.558594 796.828125 369.347656 795.714844 C 371.226562 793.066406 372.632812 791.617188 374.542969 791.90625 C 377.492188 792.351562 377.957031 794.015625 377.835938 796.058594 C 377.675781 798.59375 377.089844 801.027344 377.3125 802.289062 C 378.46875 808.730469 381.738281 809.722656 382.855469 805.929688 C 383.832031 802.605469 387.734375 800.734375 388.832031 803.246094 C 389.328125 804.394531 390.152344 805.628906 390.960938 806.148438 Z M 390.960938 806.148438 "/>
<path id="JP-CH" title="Chugoku" style=" stroke:none;fill-rule:nonzero;fill:rgb(100%,56.862745%,28.235294%);fill-opacity:1;" d="M 341.554688 853.261719 C 336.347656 847.035156 333.101562 833.8125 340.355469 827.582031 C 348.421875 820.660156 349.945312 814.734375 339.5625 803.074219 C 337.472656 804.300781 334.519531 806.351562 332.113281 806.621094 C 327.96875 807.082031 326.242188 809.382812 323.800781 810.253906 C 321.769531 810.972656 319.101562 811.847656 316.957031 812.074219 C 314.410156 812.335938 309.398438 812.367188 306.050781 812.074219 C 298.355469 811.386719 297.648438 815.59375 292.714844 816.226562 C 290.753906 816.472656 287.65625 816.070312 285.695312 816.3125 C 283.46875 816.585938 281.035156 814.445312 282.582031 812.9375 C 283.972656 811.578125 284.085938 809.492188 279.636719 809.5625 C 277.308594 809.597656 275.007812 809.929688 274.007812 811.722656 C 273.171875 813.230469 270.203125 814.980469 267.597656 816.484375 C 263.96875 818.585938 260.527344 822.046875 260.152344 823.839844 C 259.734375 825.835938 257.574219 828.175781 255.910156 829.808594 C 251.453125 834.1875 244.882812 839.246094 240.582031 844.523438 C 238.398438 847.203125 236.746094 849.894531 232.878906 853.171875 C 230.269531 855.386719 227.746094 858.742188 225.777344 861.308594 C 221.695312 866.625 219.585938 867.792969 216.507812 867.367188 C 213.003906 866.878906 209.144531 871.453125 207.59375 874.636719 C 206.46875 876.9375 205.277344 880.191406 201.183594 881.386719 C 199.246094 881.953125 196.6875 881.71875 194.429688 883.550781 C 193.570312 884.242188 190.9375 884.140625 189.40625 883.980469 C 185.195312 883.542969 184.214844 886.324219 184.039062 888.308594 C 183.804688 890.898438 184.140625 894.933594 183.261719 897.222656 C 182.460938 899.292969 183.621094 900.648438 185.253906 900.421875 C 185.832031 900.339844 187.410156 901.589844 187.675781 901.984375 C 188.339844 902.960938 189.613281 903.546875 190.792969 902.847656 C 193.617188 901.179688 193.785156 904.015625 194.429688 905.097656 C 194.765625 905.652344 195.207031 906.40625 195.46875 907 C 196.882812 910.230469 199.855469 909.738281 201.875 908.554688 C 202.746094 908.050781 203.652344 906.441406 205.859375 905.445312 C 207.050781 904.902344 208.328125 903.808594 209.148438 902.847656 C 210.808594 900.910156 218.179688 899.792969 225.253906 902.238281 C 226.019531 902.503906 227.984375 903.695312 229.066406 904.230469 C 230.753906 905.0625 232.066406 906.527344 232.703125 907.34375 C 233.539062 908.421875 234.910156 909.765625 236.171875 910.289062 C 236.964844 910.617188 237.785156 910.703125 238.59375 911.675781 C 241.597656 915.269531 240.8125 909.160156 241.105469 907.519531 C 241.394531 905.863281 241.078125 900.519531 243.351562 898.515625 C 244.105469 897.863281 246.460938 891.933594 245.347656 889.003906 C 242.882812 882.515625 254.199219 878.957031 257.988281 886.234375 C 260.742188 891.519531 266.558594 889.59375 268.382812 886.492188 C 269.671875 884.296875 274.996094 882.1875 278.078125 881.902344 C 281.191406 881.617188 284.890625 880.46875 287.257812 876.972656 C 288.210938 875.558594 293.492188 872.152344 296.261719 874.289062 C 298.585938 876.078125 301.410156 875.46875 301.289062 872.558594 C 301.207031 870.664062 304.386719 868.777344 306.65625 869.269531 C 309.335938 869.851562 310.855469 869.394531 311.675781 868.058594 C 312.910156 866.058594 315.9375 867.644531 317.046875 869.097656 C 318.375 870.84375 325.074219 869.714844 325.875 866.332031 C 326.097656 865.40625 327.171875 862.976562 332.628906 860.527344 C 334.632812 859.632812 339.144531 855.984375 341.554688 853.261719 Z M 341.554688 853.261719 "/>
<path title="" style="fill:none;stroke-width:4;stroke-linecap:butt;stroke-linejoin:miter;stroke:rgb(0%,0%,0%);stroke-opacity:1;stroke-miterlimit:4;" d="M 1624.49081 1295.502984 C 1623.081104 1279.873127 1641.948619 1275.257524 1648.997153 1284.500016 C 1657.805001 1296.044668 1669.872091 1295.299852 1676.492074 1290.492402 C 1685.50292 1283.969617 1691.716907 1282.344563 1691.75074 1295.502984 C 1691.773295 1306.652658 1692.449955 1310.737862 1692.754451 1314.495799 C 1693.171724 1319.765938 1692.675508 1325.543907 1694.502488 1330.498063 C 1695.97986 1334.504272 1699.994705 1335.023386 1700.998416 1347.741688 C 1701.483356 1353.88078 1700.784141 1365.617279 1700.254091 1371.745085 C 1699.408267 1381.393841 1700.648809 1387.228236 1702.75773 1391.245729 C 1705.058372 1395.635631 1707.956729 1402.113276 1710.505479 1404.009172 C 1717.305904 1409.042324 1722.944731 1416.885465 1726.993409 1422.505442 C 1731.301473 1428.452687 1736.17342 1434.117805 1740.492761 1437.999878 C 1750.044935 1446.565265 1757.781405 1457.974496 1763.499176 1466.991287 C 1771.404812 1479.461316 1777.178971 1494.526918 1791.501591 1507.753049 C 1799.925999 1515.539765 1807.47075 1534.521295 1812.489306 1551.505362 C 1816.45904 1564.866915 1821.973813 1578.837862 1814.000511 1601.498333 C 1812.286308 1606.339639 1811.620926 1613.595955 1811.496872 1615.99968 C 1810.910434 1627.454051 1807.211364 1639.16798 1805.993377 1646.503292 C 1805.237774 1651.118895 1795.629213 1665.744378 1791.501591 1668.994486 C 1776.344424 1680.934116 1765.247212 1715.556788 1775.4986 1742.990853 C 1777.776686 1749.107375 1781.238926 1758.327297 1785.501879 1763.258884 C 1791.569257 1770.278213 1790.542991 1780.479939 1781.002095 1778.24549 C 1778.295458 1777.613525 1775.600099 1777.286257 1773.491178 1775.503212 C 1769.352279 1771.982262 1757.984403 1770.774757 1750.755427 1774.74711 C 1743.300897 1778.854885 1732.587126 1788.311795 1724.997265 1795.252128 C 1720.023819 1799.811306 1716.211972 1809.053799 1716.505191 1815.001044 C 1717.057796 1825.970156 1718.061507 1837.71794 1719.493769 1847.998662 C 1720.64409 1856.1465 1724.929599 1866.099954 1730.004543 1872.509888 C 1738.0004 1882.598763 1744.383552 1899.120142 1747.992401 1911.499891 C 1749.87577 1917.89854 1749.999824 1927.073322 1751.74786 1933.494541 C 1753.292899 1939.204799 1755.852926 1947.02537 1755.999536 1953.491729 C 1756.168701 1961.402581 1755.807816 1971.491456 1755.503319 1978.002955 C 1755.052213 1987.629141 1752.379409 1998.756245 1747.992401 2004.003814 C 1737.391406 2016.654405 1738.823669 2022.996629 1737.007966 2028.49247 C 1733.895334 2037.870384 1729.260218 2047.203157 1725.504759 2055.001158 C 1721.760578 2062.754018 1719.211828 2073.745701 1719.493769 2081.995105 C 1719.832099 2091.745427 1719.786988 2105.253686 1719.753155 2115.004008 C 1719.674212 2131.525387 1726.65508 2150.901895 1737.504183 2163.496061 C 1742.488906 2169.2966 1750.541151 2177.636285 1755.999536 2182.996705 C 1762.845072 2189.745192 1771.010094 2198.017166 1754.240222 2206.007013 C 1748.364564 2208.794432 1742.026522 2213.534172 1736.004255 2216.005607 C 1719.459936 2222.731524 1720.937309 2237.108735 1721.241806 2248.743668 C 1721.478636 2256.823796 1719.15544 2269.756515 1720.001264 2279.755109 C 1721.692912 2299.865148 1715.343593 2304.514607 1706.998128 2308.001701 C 1700.299202 2310.800405 1693.386 2318.214712 1688.243389 2321.250403 C 1677.721338 2327.46849 1677.157455 2334.894083 1676.492074 2337.997484 C 1674.834259 2345.795484 1667.875946 2351.923291 1660.004143 2353.00666 C 1654.004431 2353.830472 1648.376882 2350.399803 1649.49337 2340.999319 C 1650.023419 2336.677128 1649.741478 2332.242085 1648.004719 2328.247162 C 1646.41457 2324.613361 1644.700367 2318.632261 1644.508646 2315.009745 C 1643.978597 2305.857533 1644.237983 2293.398789 1644.260538 2284.246577 C 1644.271816 2261.913374 1649.854255 2265.953438 1654.996865 2260.751009 C 1658.053109 2257.681463 1665.022699 2250.549283 1667.751892 2247.502307 C 1684.814983 2228.362786 1660.579304 2221.930282 1644.01243 2229.502581 C 1640.042695 2231.308196 1634.460257 2233.429794 1630.5018 2235.246694 C 1619.460977 2240.347557 1619.145202 2250.109164 1620.002304 2260.999281 C 1620.588742 2268.560295 1624.524643 2276.34701 1627.501944 2280.003381 C 1649.380593 2306.805481 1616.979893 2323.518707 1613.506375 2305.011151 C 1612.232 2298.27395 1609.49153 2292.484696 1598.495817 2293.00381 C 1590.590182 2293.376218 1579.68469 2292.42827 1572.748933 2296.242632 C 1566.884553 2299.47017 1560.320958 2304.785449 1557.749653 2313.497543 C 1556.824885 2316.668654 1555.55051 2322.68361 1556.204614 2327.953749 C 1556.542944 2330.786308 1557.445156 2333.42702 1559.249581 2335.255206 C 1563.095261 2339.159849 1566.805609 2343.640031 1566.51239 2349.496995 C 1566.185338 2355.489381 1565.959785 2363.535654 1566.51239 2369.494184 C 1567.358214 2379.030089 1562.66671 2384.616211 1557.997761 2387.245638 C 1554.118248 2389.434946 1551.332667 2395.212915 1547.509543 2397.492504 C 1536.389776 2404.12814 1540.596341 2407.852221 1538.994914 2411.993851 C 1532.487707 2428.910209 1517.104987 2407.513669 1517.995922 2392.504492 C 1518.58236 2382.641319 1518.210197 2367.327445 1518.503416 2361.504336 C 1519.439461 2342.28582 1507.28215 2343.425614 1498.756244 2347.251262 C 1490.298003 2351.054339 1484.230625 2356.076206 1480.001505 2357.498128 C 1474.114569 2359.484304 1468.644907 2367.29359 1468.498297 2373.996937 C 1468.250189 2385.372312 1465.137556 2394.863077 1460.254332 2399.501251 C 1450.352552 2408.901735 1451.356263 2416.259617 1451.006656 2419.250167 C 1448.706014 2438.310693 1442.480749 2433.390391 1433.999953 2434.507616 C 1412.38069 2437.35146 1376.100476 2433.017983 1354.751877 2437.001622 C 1351.909908 2437.520736 1322.486508 2443.727538 1312.494507 2447.49676 C 1296.435127 2453.556856 1271.5679 2460.948593 1307.498506 2438.502539 C 1312.979446 2435.07187 1324.866093 2421.38305 1301.498794 2423.493363 C 1298.126775 2423.809346 1293.705935 2424.937855 1290.503081 2426.009939 C 1271.342347 2432.374733 1272.222004 2441.335098 1261.000738 2422.996819 C 1258.05727 2418.178083 1257.098669 2410.131811 1257.504665 2404.500548 C 1258.767762 2386.749094 1256.410732 2389.559082 1243.24971 2393.745853 C 1239.764915 2394.863077 1228.63387 2401.634134 1226.502393 2405.493637 C 1223.604036 2410.718635 1218.450148 2420.073979 1216.002897 2424.746008 C 1212.754933 2430.941526 1209.653578 2437.825434 1216.995331 2442.249191 C 1221.044009 2444.686771 1230.393184 2449.900485 1234.250142 2453.759988 C 1237.644716 2457.134231 1245.234577 2460.327913 1249.993747 2462.754208 C 1260.775185 2468.204909 1301.273241 2491.395779 1263.493099 2508.007439 C 1260.718796 2509.214944 1254.087536 2506.743508 1248.753205 2508.989242 C 1239.764915 2512.781034 1224.551359 2514.778496 1215.495403 2520.500039 C 1206.349225 2526.278008 1196.199337 2526.492424 1197.496267 2543.002518 C 1198.736809 2558.835507 1193.379923 2561.476219 1180.004625 2572.490471 C 1162.09571 2587.273946 1162.659593 2581.868385 1162.749814 2607.000292 C 1162.806203 2620.689112 1165.535395 2632.820589 1155.498283 2635.246884 C 1147.863311 2637.09764 1142.731978 2643.958978 1141.254605 2645.245478 C 1137.555535 2648.43916 1134.510568 2654.600822 1126.244048 2653.494883 C 1124.529844 2653.280466 1121.225491 2650.459192 1118.000082 2650.504333 C 1114.571676 2650.549473 1111.301156 2649.138836 1106.993092 2645.493751 C 1102.222644 2641.464972 1095.196666 2637.312057 1088.993956 2636.510815 C 1086.783536 2636.206117 1084.144564 2635.608007 1074.750279 2629.006227 C 1072.799244 2627.64073 1070.216662 2622.799425 1068.243072 2620.756822 C 1064.938719 2617.314868 1060.901319 2614.245323 1059.999107 2609.990842 C 1058.724732 2603.975886 1053.672343 2597.93836 1046.499755 2596.493868 C 1040.12788 2595.218653 1033.631951 2584.509097 1036.000259 2575.007048 C 1037.883627 2567.491174 1037.184412 2556.725194 1036.000259 2551.500195 C 1031.489197 2531.548147 1033.54173 2527.440372 1042.496187 2522.745773 C 1046.725308 2520.533894 1053.694898 2515.433031 1056.243648 2511.75409 C 1058.465346 2508.571694 1060.878764 2504.452634 1064.002674 2501.755496 C 1069.303172 2497.185033 1072.787967 2490.718673 1072.246639 2483.75577 C 1071.648924 2476.00291 1073.690179 2464.841951 1059.254782 2466.997404 C 1051.010816 2468.238764 1038.278345 2474.82926 1021.497195 2468.994866 C 1014.69677 2466.636281 1005.189707 2464.75167 997.00213 2465.496486 C 986.513912 2466.467004 977.130904 2462.505936 966.755462 2460.745461 C 951.440407 2458.17246 932.24584 2458.082179 927.261117 2463.758582 C 920.291527 2471.613008 907.277114 2482.153286 901.491677 2484.748858 C 885.736794 2491.813328 882.635439 2498.843942 881.992613 2501.507224 C 879.691971 2511.291402 860.339517 2514.541509 856.493837 2509.508357 C 853.302261 2505.299016 844.562079 2500.717268 840.99834 2506.495236 C 838.630032 2510.354739 834.243025 2511.675095 826.506554 2510.004901 C 819.954237 2508.571694 810.774227 2514.03368 811.011057 2519.506951 C 811.360665 2527.903061 803.206921 2529.674821 796.496716 2524.494963 C 788.50086 2518.322016 773.253471 2528.173904 770.501723 2532.247823 C 763.667465 2542.359268 752.987526 2545.677086 743.999236 2546.500898 C 735.101167 2547.313425 719.729724 2553.407376 716.008098 2559.749599 C 710.741434 2568.709965 693.949007 2574.273516 685.998261 2559.004783 C 675.058936 2537.980651 642.387572 2548.261373 649.492494 2567.005915 C 652.717903 2575.469736 645.917477 2592.600511 643.74089 2594.496406 C 637.177295 2600.274375 638.090785 2615.712385 637.256239 2620.50855 C 636.410415 2625.237005 638.677223 2642.898179 629.99343 2632.504606 C 627.670233 2629.694618 625.301926 2629.446346 623.012562 2628.509683 C 619.369879 2626.986195 615.411423 2623.115407 612.998005 2620.000721 C 611.159747 2617.642136 607.370455 2613.410226 602.498509 2611.0065 C 599.374599 2609.449157 593.701939 2606.007203 591.491518 2605.251102 C 571.067687 2598.186633 549.786753 2601.402885 544.99375 2607.000292 C 542.625443 2609.776425 538.93765 2612.936252 535.497965 2614.50488 C 529.126091 2617.393864 526.498397 2622.043323 523.994758 2623.4991 C 518.164211 2626.907199 509.581916 2628.340406 505.499405 2619.007633 C 504.743802 2617.281013 503.469427 2615.114275 502.499549 2613.500506 C 500.638736 2610.38582 500.153797 2602.181556 492.000053 2607.000292 C 488.594201 2609.020324 484.917686 2607.327559 483.000485 2604.506286 C 482.233604 2603.377776 477.677432 2599.766546 476.008339 2599.992248 C 471.29428 2600.646783 467.944816 2596.74214 470.256736 2590.76104 C 472.794208 2584.136689 471.82433 2572.467901 472.500989 2565.008453 C 473.008483 2559.275625 475.839174 2551.240638 487.996486 2552.493283 C 492.417326 2552.955972 500.018465 2553.249385 502.499549 2551.251923 C 509.018033 2545.970498 516.393619 2546.636319 521.998613 2545.011265 C 533.817595 2541.546741 537.257279 2532.157542 540.505244 2525.499336 C 544.982472 2516.313269 556.124795 2503.087138 566.240851 2504.497774 C 575.127642 2505.739135 581.217575 2502.353606 593.002724 2486.994592 C 598.686662 2479.580285 605.972026 2469.897673 613.505499 2463.487739 C 624.670377 2454.019545 629.440825 2446.255399 635.745033 2438.502539 C 648.161731 2423.267661 667.130745 2408.642178 679.998548 2395.991587 C 684.802829 2391.285702 691.039372 2384.52593 692.246081 2378.759247 C 693.328736 2373.579388 703.264349 2363.580794 713.74129 2357.498128 C 721.263485 2353.153366 729.834502 2348.108929 732.24792 2343.752882 C 735.135 2338.573024 741.788816 2337.613791 748.49902 2337.50094 C 761.344268 2337.297808 761.017216 2343.335334 757.002371 2347.251262 C 752.53642 2351.607308 759.562399 2357.79154 765.990662 2357.001584 C 771.652044 2356.301908 780.595224 2357.464272 786.256606 2356.753312 C 800.500284 2354.925126 802.541539 2342.771079 824.758518 2344.757256 C 834.423467 2345.603638 848.892698 2345.513357 856.245728 2344.757256 C 862.437161 2344.10272 870.139798 2341.574859 875.992901 2339.498401 C 883.052712 2336.99311 888.037436 2330.334904 900.003027 2329.003263 C 906.950062 2328.213306 915.475968 2322.311202 921.509513 2318.756397 C 929.245984 2314.185933 927.452837 2311.206668 942.756614 2310.743979 C 957.902503 2310.281291 964.612708 2315.359583 974.50321 2316.002834 C 991.149028 2317.086203 990.94603 2313.350836 999.009553 2308.001701 C 1002.280073 2305.823678 1005.22354 2300.71153 1007.501627 2297.506563 C 1012.926178 2289.843984 1016.986134 2285.657213 1022.500907 2286.49231 C 1031.015536 2287.778811 1032.357576 2292.586262 1032.007969 2298.499651 C 1031.545585 2305.812393 1029.853937 2312.854292 1030.496763 2316.499378 C 1033.834949 2335.097214 1043.274346 2337.963628 1046.499755 2327.005801 C 1049.319168 2317.413471 1060.585545 2311.996625 1063.754566 2319.252941 C 1065.186828 2322.570759 1067.566413 2326.136849 1069.900887 2327.637767 C 1074.660057 2330.696027 1079.757557 2328.574429 1083.005521 2327.005801 C 1087.618082 2324.771352 1092.501306 2324.274808 1096.008657 2321.995219 C 1099.54984 2319.69306 1103.959403 2315.52886 1105.245055 2311.500081 C 1108.763684 2300.542254 1117.887306 2302.088312 1121.755541 2300.000569 C 1147.491148 2286.029622 1133.067028 2265.660025 1128.488301 2260.502737 C 1118.755685 2249.511054 1113.071747 2239.997719 1122.251758 2230.247397 C 1127.67631 2224.480714 1134.07074 2217.574236 1137.995363 2208.997564 C 1141.446325 2201.48169 1149.137686 2193.198431 1154.009632 2186.506369 C 1163.324975 2173.652646 1176.407053 2157.165123 1185.248734 2143.995417 C 1188.000482 2139.921497 1190.98906 2133.06016 1193.752086 2128.997526 C 1204.815464 2112.679278 1199.052583 2067.651749 1194.507688 2059.007367 C 1188.92525 2048.399378 1181.831605 2035.04911 1192.488988 2024.497546 C 1195.455011 2021.585992 1199.108971 2017.399222 1201.499834 2014.002408 C 1204.736521 2009.398089 1215.371349 2002.017637 1220.502681 2001.509808 C 1239.02059 1999.647767 1242.539218 1992.617153 1245.009024 1988.001549 C 1249.328366 1979.876281 1267.812441 1973.680764 1274.003873 1982.494423 C 1278.052551 1988.261107 1273.800875 2003.168717 1271.252125 2004.996902 C 1269.041705 2006.576816 1264.880251 2013.67514 1263.493099 2015.99987 C 1258.463265 2024.542687 1245.933792 2031.832858 1238.998034 2035.500514 C 1231.690114 2039.360016 1225.025021 2050.554831 1235.501962 2053.003696 C 1245.042857 2055.22686 1247.952492 2060.305153 1241.501674 2067.008499 C 1236.990612 2071.691813 1248.110379 2097.839378 1263.989316 2099.994832 C 1278.469824 2101.969723 1286.296516 2091.734142 1286.251405 2083.247751 C 1286.217572 2078.248454 1290.130918 2074.072968 1292.003009 2073.497429 C 1295.262251 2072.50434 1299.54776 2067.064925 1302.243119 2065.011037 C 1307.081233 2061.320811 1317.310065 2062.991005 1323.253389 2061.004829 C 1335.388145 2056.942194 1340.970584 2056.050672 1346.992851 2050.498405 C 1351.752021 2046.119788 1359.240383 2043.919195 1362.995842 2039.754995 C 1365.815256 2036.617738 1370.901478 2033.017793 1375.502761 2030.997761 C 1380.115321 2028.977729 1385.415819 2024.542687 1389.002113 2020.987882 C 1392.926737 2017.117094 1398.689618 2012.885184 1402.997682 2009.996199 C 1408.738008 2006.170552 1414.309169 1998.033999 1418.741287 1992.741289 C 1422.880186 1987.820988 1425.428936 1980.327685 1427.504024 1974.008032 C 1429.229505 1968.737892 1431.936142 1957.351232 1435.996098 1951.494267 C 1441.758979 1943.199723 1444.928 1934.408634 1445.50316 1929.747889 C 1447.713581 1911.928724 1473.573242 1887.880187 1481.501433 1883.998115 C 1500.233616 1874.812047 1517.916978 1846.847582 1518.503416 1823.995265 C 1518.740247 1814.685061 1517.623759 1795.331124 1520.251452 1792.002021 C 1522.608482 1789.022756 1524.615905 1784.745705 1526.172221 1780.479939 C 1527.457874 1776.958989 1528.078144 1774.419843 1528.010479 1771.75656 C 1527.683427 1762.265795 1532.498985 1753.215149 1538.994914 1744.503056 C 1546.201335 1734.8543 1554.63702 1710.839618 1553.994194 1703.752578 C 1552.945372 1691.959654 1552.370212 1681.509656 1557.501544 1674.501612 C 1560.907396 1669.818298 1562.565211 1661.772025 1563.00504 1656.005342 C 1563.805753 1645.17165 1562.993762 1618.640392 1563.00504 1605.504542 C 1563.00504 1600.076411 1563.185482 1591.928573 1559.001472 1588.509189 C 1554.693408 1584.976954 1552.246157 1577.675498 1552.494266 1571.999095 C 1552.731097 1567.056223 1552.065715 1560.352877 1553.00176 1555.500286 C 1554.97535 1545.32113 1546.60733 1535.164545 1546.246445 1555.003742 C 1546.167502 1559.811192 1545.028459 1562.214918 1543.754084 1565.002336 C 1534.145522 1586.094178 1511.793212 1576.061729 1512.503704 1564.494507 C 1513.123975 1554.17993 1522.42804 1545.490407 1528.010479 1541.506768 C 1533.739527 1537.398994 1542.479709 1523.92459 1542.998481 1511.747973 C 1543.269145 1505.146192 1544.216468 1495.520006 1544.002192 1490.001595 C 1543.765361 1484.065635 1542.840594 1477.091446 1536.750661 1472.498413 C 1532.52154 1469.304731 1528.202199 1464.023307 1526.499273 1460.998901 C 1524.424185 1457.34253 1521.604771 1452.331948 1518.503416 1449.488104 C 1507.112985 1439.139672 1516.777935 1433.350419 1523.499417 1430.01003 C 1526.815047 1428.351121 1531.901269 1427.52731 1534.991347 1425.495992 C 1551.287557 1414.854148 1555.35879 1404.234874 1558.245869 1393.491463 C 1559.407468 1389.214412 1557.873707 1356.103944 1557.997761 1352.503998 C 1558.234592 1345.59752 1561.764498 1330.193366 1568.00104 1332.247253 C 1572.106107 1333.590179 1577.925376 1331.186454 1581.004176 1329.504975 C 1594.435862 1322.101953 1599.58975 1334.256 1602.995601 1344.243309 C 1604.247421 1347.888395 1602.239999 1361.283802 1602.995601 1369.002807 C 1603.706094 1376.134987 1609.322365 1381.664684 1613.506375 1386.257717 C 1617.600164 1390.7379 1627.344057 1395.308363 1632.509222 1379.99449 C 1635.509078 1371.034124 1645.568746 1362.953996 1657.489226 1374.758206 C 1663.443828 1380.626455 1666.015133 1381.958096 1673.503495 1370.255453 C 1676.841681 1365.019169 1674.067378 1341.760588 1674.247821 1331.005893 C 1674.529762 1314.879492 1664.357318 1315.545312 1655.493082 1325.99531 C 1651.692512 1330.498063 1638.215715 1346.579324 1615.998737 1337.494822 C 1607.190889 1333.906162 1615.761906 1318.648714 1619.506087 1312.001793 C 1621.615008 1308.232571 1625.099804 1302.093479 1624.49081 1295.502984 Z M 1624.49081 1295.502984 " transform="matrix(0.346371,0,0,0.346142,20.378522,0.454283)"/>
<path id="JP-SH" title="Shikoku" style="fill-rule:evenodd;fill:rgb(44.705882%,44.705882%,100%);fill-opacity:1;stroke-width:4;stroke-linecap:butt;stroke-linejoin:miter;stroke:rgb(0%,0%,0%);stroke-opacity:1;stroke-miterlimit:4;" d="M 980.006706 2523.501874 C 979.476656 2515.602308 982.059239 2512.577902 984.247104 2508.244426 C 986.592856 2503.628822 990.066373 2502.060194 991.498635 2500.502851 C 993.34817 2498.494104 996.505914 2495.131146 997.746456 2492.253446 C 999.009553 2489.319322 1004.535603 2487.784549 1005.75359 2484.500586 C 1006.915188 2481.34076 1011.324751 2480.031689 1015.001267 2481.239194 C 1020.56115 2483.089949 1022.873069 2488.111817 1021.249087 2493.246535 C 1020.516039 2495.548694 1020.019823 2499.712894 1019.252942 2502.003768 C 1018.102621 2505.378012 1016.478639 2508.188 1013.997555 2510.749717 C 1007.885067 2517.035515 1008.674503 2522.666777 1008.753446 2523.750146 C 1010.072932 2543.397497 992.840676 2544.593717 985.758309 2536.491019 C 983.074228 2533.421473 980.649532 2533.545609 980.006706 2523.501874 Z M 980.006706 2523.501874 " transform="matrix(0.346371,0,0,0.346142,20.378522,0.454283)"/>
<path id="JP-SH"  title="Shikoku" style="fill-rule:evenodd;fill:rgb(81.960784%,43.137255%,100%);fill-opacity:1;stroke-width:4;stroke-linecap:butt;stroke-linejoin:miter;stroke:rgb(0%,0%,0%);stroke-opacity:1;stroke-miterlimit:4;" d="M 892.503387 2528.501171 C 895.548353 2530.825901 903.059271 2534.290425 904.999027 2530.995177 C 907.367335 2526.966398 911.788175 2526.560135 916.998452 2528.997715 C 919.817865 2530.306787 922.265116 2533.72617 927.509225 2533.997013 C 938.189164 2534.561267 938.786879 2540.011968 939.001155 2540.745499 C 940.196586 2544.808133 951.767459 2546.049494 955.748471 2545.259537 C 967.556175 2542.878382 968.480943 2547.313425 968.007281 2551.500195 C 966.935904 2560.562126 972.326623 2572.35505 977.24368 2573.754402 C 982.431401 2575.221464 984.483934 2582.805048 985.510201 2592.002401 C 986.401135 2600.195379 981.540467 2608.083661 976.499355 2611.503045 C 961.511353 2621.670915 943.264108 2638.93711 933.249551 2653.246611 C 930.903799 2656.598284 928.964043 2664.486565 925.253694 2670.749793 C 921.780177 2676.606757 920.32536 2682.599143 918.49838 2688.501247 C 916.299237 2695.622142 912.081394 2702.348059 903.499099 2693.004 C 899.867695 2689.042932 893.089825 2687.101896 887.992325 2678.999197 C 885.556352 2675.10584 879.669416 2671.494609 875.992901 2668.752331 C 869.812746 2664.136727 862.617603 2660.943045 851.001619 2661.496015 C 844.257582 2661.823283 833.961084 2659.509838 829.247024 2670.004977 C 827.453877 2673.988615 821.172224 2680.364694 815.251455 2682.745849 C 803.985079 2687.305027 792.436761 2691.85292 792.00821 2708.250163 C 791.681158 2720.155939 788.241474 2725.426078 783.752967 2732.25356 C 780.020064 2737.929963 775.351115 2746.043946 769.498012 2750.998103 C 761.547266 2757.72402 754.307012 2766.424828 761.005939 2772.992753 C 765.359113 2777.303659 769.035628 2790.41694 755.99866 2788.001929 C 749.931282 2786.884705 740.80766 2788.261487 736.003379 2793.509056 C 729.710448 2800.359108 721.319873 2803.564075 715.500604 2793.509056 C 711.711312 2786.94113 705.959708 2778.624015 701.493757 2772.496209 C 695.877486 2764.777204 687.735019 2762.418619 680.990982 2774.990215 C 677.179135 2782.144965 660.194988 2803.699496 676.006259 2772.496209 C 679.17528 2766.221696 684.644942 2759.213652 685.750152 2752.250749 C 687.25008 2742.805124 688.637232 2734.736281 692.246081 2731.508744 C 697.174416 2727.107557 697.478912 2721.848703 694.490334 2719.490118 C 690.960428 2716.713985 689.009394 2708.566146 686.246369 2705.000056 C 674.370999 2689.629757 664.018112 2695.915555 649.492494 2696.005835 C 617.238403 2696.175112 633.004563 2692.609022 649.492494 2690.002165 C 669.972714 2686.763343 677.506187 2672.80368 689.009394 2662.748661 C 692.279914 2659.882247 696.463924 2655.153792 700.241938 2652.998339 C 708.136296 2648.518156 710.098608 2644.500662 710.752711 2638.260005 C 711.305317 2632.843159 713.763845 2626.737923 717.000532 2623.995645 C 723.056632 2618.849641 722.470194 2611.875453 722.504027 2610.239114 C 722.673192 2599.698835 728.921012 2591.099593 735.507162 2585.005642 C 750.280889 2571.305536 756.923428 2581.597543 764.998228 2592.002401 C 770.817498 2599.495704 777.956253 2609.798995 786.008498 2599.495704 C 791.320273 2592.679506 802.733259 2591.945975 806.499996 2592.48766 C 821.96166 2594.789819 835.246736 2581.495977 835.494845 2572.761314 C 835.833174 2560.539556 834.344524 2554.671306 850.009186 2545.756081 C 855.354794 2542.697821 861.974777 2537.179409 866.497116 2532.992639 C 874.436585 2525.691183 884.766916 2522.632922 892.503387 2528.501171 Z M 892.503387 2528.501171 " transform="matrix(0.346371,0,0,0.346142,20.378522,0.454283)"/>
<path id="JP-KY" title="Kyushu" style="fill-rule:evenodd;fill:rgb(77.254902%,77.254902%,77.254902%);fill-opacity:1;stroke-width:4;stroke-linecap:butt;stroke-linejoin:miter;stroke:rgb(0%,0%,0%);stroke-opacity:1;stroke-miterlimit:4;" d="M 480.993062 2613.997051 C 481.692277 2613.297375 490.725678 2635.472586 496.00362 2644.997206 C 503.807757 2659.103575 520.679128 2671.314048 531.742506 2672.747255 C 544.644143 2674.428734 551.929507 2670.3661 554.004596 2668.007515 C 571.372183 2648.224743 603.141335 2674.823712 581.995733 2698.003297 C 574.22543 2706.534829 569.545203 2721.544005 591.739627 2720.754049 C 604.483376 2720.302645 607.257679 2731.474889 610.990582 2736.9933 C 615.997861 2744.373752 621.117916 2755.681417 626.497357 2762.001071 C 633.861665 2770.656738 633.466947 2783.623313 625.504923 2791.996853 C 618.400001 2799.467586 618.422557 2803.236807 618.005283 2808.743934 C 617.272236 2818.358835 608.486943 2827.172494 604.246545 2831.009426 C 589.709649 2844.133992 589.202154 2868.588792 588.999157 2875.246998 C 588.491662 2891.915083 584.025711 2894.4768 580.507083 2901.992673 C 572.759335 2918.570478 574.304373 2927.801685 573.50366 2937.495582 C 572.015009 2955.450168 574.552482 2979.803403 573.255551 2997.757989 C 572.714224 3005.183581 571.14663 3016.254259 568.000165 3022.991461 C 561.504236 3036.996264 549.865697 3034.637679 545.997461 3026.501126 C 542.997605 3020.170187 532.678552 3011.999779 526.994614 3027.257227 C 524.795471 3033.181902 524.953358 3040.979902 524.502252 3046.498314 C 523.622595 3057.36586 520.825737 3061.281788 514.510251 3064.49804 C 498.980921 3072.386322 493.98492 3079.597497 490.252017 3081.504678 C 470.628898 3091.458132 453.453031 3084.03254 478.004484 3061.010946 C 491.255728 3048.563486 486.699555 3035.34864 476.504556 3026.99767 C 464.629186 3017.292488 464.629186 3023.45415 464.257024 3005.240007 C 464.020193 2994.270895 466.365945 2992.566845 472.500989 2992.995679 C 483.316259 2993.75178 481.759943 2980.627215 467.49371 2988.007667 C 461.956382 2990.874081 455.437898 2996.178076 450.509563 3000.003723 C 432.747258 3013.805394 447.408208 3027.61835 453.74625 3034.987517 C 459.058025 3041.183034 471.756664 3051.452471 459.497853 3068.492964 C 456.836327 3072.217045 447.216488 3071.257812 441.498717 3069.993882 C 434.066743 3068.368828 421.525992 3064.712457 416.992375 3065.254142 C 399.478178 3067.353169 388.426077 3042.559816 406.00794 3029.502961 C 418.627635 3020.113762 416.766822 2992.386284 404.508012 2987.511123 C 390.399666 2981.87986 385.922437 2947.607027 390.512443 2940.497417 C 403.199804 2920.793641 415.52628 2904.949368 426.003221 2893.991541 C 430.976666 2888.800397 437.11171 2880.945971 437.506428 2873.746081 C 438.543972 2854.155156 437.934979 2844.167847 434.743403 2843.502026 C 430.221063 2842.554078 422.146263 2840.850029 433.750969 2835.00435 C 436.841046 2833.435722 449.020913 2811.204085 435.499005 2796.003062 C 427.458038 2786.94113 418.593802 2772.812192 414.003796 2762.994159 C 407.710865 2749.542326 386.790817 2741.891031 383.497742 2762.001071 C 382.550419 2767.801609 381.828649 2790.46208 381.997814 2793.509056 C 382.798527 2808.044258 391.516154 2802.142153 395.993383 2801.002359 C 418.548691 2795.26953 423.228918 2813.111266 413.755688 2822.240907 C 409.402514 2826.427678 405.895163 2831.878378 401.993095 2835.500894 C 390.230501 2846.413581 380.137001 2843.513311 383.993959 2828.49285 C 387.377255 2815.37957 381.828649 2804.060619 364.494894 2820.491718 C 358.562848 2826.134265 350.115885 2833.920981 344.747722 2837.9949 C 333.864786 2846.255589 322.248802 2847.609801 329.252225 2834.756078 C 334.688054 2824.757484 323.015682 2812.671147 316.497198 2807.999118 C 309.065224 2802.683838 306.234533 2781.197017 311.997414 2776.987677 C 315.482209 2774.471101 329.240947 2780.903605 331.496478 2794.0056 C 332.951296 2802.40171 336.887197 2805.166559 342.007252 2807.006029 C 353.510459 2811.158944 357.277196 2802.480706 353.487904 2794.490859 C 349.597113 2786.25274 337.11275 2773.87299 331.496478 2773.997127 C 321.425533 2774.222828 311.794416 2767.305065 306.990136 2758.502691 C 305.027824 2754.868891 299.704771 2752.126613 296.998134 2748.989356 C 282.314628 2731.971433 303.212122 2717.357235 317.997126 2723.496327 C 330.955151 2728.890602 333.808397 2732.16328 332.240803 2715.754752 C 330.379991 2695.94941 344.296616 2698.951245 350.995542 2698.996386 C 362.916023 2699.086666 369.344286 2701.196979 370.742715 2687.745146 C 371.87048 2676.92274 380.96027 2671.156056 390.512443 2676.505191 C 402.782531 2683.366529 412.424925 2669.756705 412.503868 2661.247743 C 412.548979 2655.695476 415.751833 2649.161406 424.751401 2639.749637 C 434.202075 2629.875179 443.799359 2623.758658 451.501997 2625.24829 C 459.362522 2626.771778 461.809773 2625.20315 465.249457 2622.506012 C 467.68543 2620.598831 470.437178 2616.705473 473.493422 2616.242784 C 478.286425 2615.531823 481.094561 2614.030906 480.993062 2613.997051 Z M 480.993062 2613.997051 " transform="matrix(0.346371,0,0,0.346142,20.378522,0.454283)"/>
<path id="JP-OK" title="Okinawa" style="fill-rule:evenodd;fill:rgb(77.254902%,77.254902%,77.254902%);fill-opacity:1;stroke-width:4;stroke-linecap:butt;stroke-linejoin:miter;stroke:rgb(0%,0%,0%);stroke-opacity:1;stroke-miterlimit:4;" d="M 2060.496199 2783.995721 C 2068.785275 2753.02942 2097.892901 2772.372073 2079.00283 2794.0056 C 2073.048229 2800.821797 2069.315325 2808.958351 2062.503622 2813.0097 C 2055.985138 2816.869202 2048.677218 2823.674114 2049.996703 2827.25149 C 2051.778573 2832.05894 2049.692207 2834.677082 2047.504342 2836.493982 C 2037.354453 2844.946518 2042.113623 2849.437986 2046.748739 2852.496247 C 2056.436244 2858.883611 2053.932605 2863.871623 2042.497063 2867.990682 C 2027.971445 2873.238251 2030.362307 2880.878261 2034.501206 2884.500776 C 2055.116758 2902.534358 2011.991009 2929.359028 2011.494792 2887.502611 C 2011.415848 2880.968541 2023.110776 2880.878261 2014.505926 2865.99322 C 2009.994864 2858.21779 2009.137762 2853.681182 2020.257529 2845.996032 C 2033.66666 2836.708399 2033.350886 2823.064719 2031.512628 2821.010832 C 2025.693359 2814.499332 2015.047253 2811.576493 2034.997423 2809.500035 C 2047.842671 2808.157109 2054.451377 2806.599766 2060.496199 2783.995721 Z M 2060.496199 2783.995721 " transform="matrix(0.346371,0,0,0.346142,20.378522,0.454283)"/>
<path title="" style="fill:none;stroke-width:8;stroke-linecap:butt;stroke-linejoin:miter;stroke:rgb(0%,0%,0%);stroke-opacity:1;stroke-miterlimit:4;" d="M 1770.006382 3049.996693 L 1770.006382 2835.00435 L 1930.002463 2639.997909 L 2199.989504 2639.997909 " transform="matrix(0.346371,0,0,0.346142,20.378522,0.454283)"/>
</svg>
